HIERARCHY
ROOT Root
{
	OFFSET 0.00 0.00 0.00
	CHANNELS 6 Xposition Yposition Zposition Xrotation Yrotation Zrotation
	JOINT L_Femur
	{
		OFFSET 2.78527 0.00000 0.00000
		CHANNELS 3 Xrotation Yrotation Zrotation
		JOINT L_Tibia
		{
			OFFSET 0.00000 -16.41095 0.00000
			CHANNELS 3 Xrotation Yrotation Zrotation
			JOINT L_Foot
			{
				OFFSET 0.00000 -14.21163 0.00000
				CHANNELS 3 Xrotation Yrotation Zrotation
				JOINT L_Toe
				{
					OFFSET 0.00000 -1.60827 6.00215
					CHANNELS 3 Xrotation Yrotation Zrotation
					End Site
					{
						OFFSET 0.00000 0.00000 2.95275
					}
				}
			}
		}
	}
	JOINT R_Femur
	{
		OFFSET -2.78527 0.00000 0.00000
		CHANNELS 3 Xrotation Yrotation Zrotation
		JOINT R_Tibia
		{
			OFFSET 0.00000 -16.41095 0.00000
			CHANNELS 3 Xrotation Yrotation Zrotation
			JOINT R_Foot
			{
				OFFSET 0.00000 -14.21163 0.00000
				CHANNELS 3 Xrotation Yrotation Zrotation
				JOINT R_Toe
				{
					OFFSET 0.00000 -1.60827 6.00215
					CHANNELS 3 Xrotation Yrotation Zrotation
					End Site
					{
						OFFSET 0.00000 0.00000 2.95275
					}
				}
			}
		}
	}
	JOINT LowerBack
	{
		OFFSET 0.00000 0.03937 0.00000
		CHANNELS 3 Xrotation Yrotation Zrotation
		JOINT Thorax
		{
			OFFSET 0.00000 7.01329 0.00000
			CHANNELS 3 Xrotation Yrotation Zrotation
			JOINT Neck
			{
				OFFSET 0.00000 7.25825 0.00000
				CHANNELS 3 Xrotation Yrotation Zrotation
				JOINT Head
				{
					OFFSET 0.00000 5.63334 0.00000
					CHANNELS 3 Xrotation Yrotation Zrotation
					End Site
					{
						OFFSET 0.00000 4.52755 0.00000
					}
				}
			}
			JOINT L_Collar
			{
				OFFSET 0.00000 7.25825 0.00000
				CHANNELS 3 Xrotation Yrotation Zrotation
				JOINT L_Humerus
				{
					OFFSET 6.91821 -0.00003 0.00000
					CHANNELS 3 Xrotation Yrotation Zrotation
					JOINT L_Elbow
					{
						OFFSET 10.34006 -0.00004 0.00000
						CHANNELS 3 Xrotation Yrotation Zrotation
						JOINT L_Wrist
						{
							OFFSET 7.25554 -0.00003 0.00000
							CHANNELS 3 Xrotation Yrotation Zrotation
							JOINT L_Thumb
							{
								OFFSET 0.00000 0.00000 0.00000
								CHANNELS 3 Xrotation Yrotation Zrotation
								End Site
								{
									OFFSET 0.00000 0.00000 3.93700
								}
							}
							JOINT L_Wrist_End
							{
								OFFSET 3.93700 -0.00001 0.00000
								CHANNELS 3 Xrotation Yrotation Zrotation
							}
						}
					}
				}
			}
			JOINT R_Collar
			{
				OFFSET 0.00000 7.25825 0.00000
				CHANNELS 3 Xrotation Yrotation Zrotation
				JOINT R_Humerus
				{
					OFFSET -6.91821 -0.00003 0.00000
					CHANNELS 3 Xrotation Yrotation Zrotation
					JOINT R_Elbow
					{
						OFFSET -10.34006 -0.00004 0.00000
						CHANNELS 3 Xrotation Yrotation Zrotation
						JOINT R_Wrist
						{
							OFFSET -7.25554 -0.00003 0.00000
							CHANNELS 3 Xrotation Yrotation Zrotation
							JOINT R_Thumb
							{
								OFFSET 0.00000 0.00000 0.00000
								CHANNELS 3 Xrotation Yrotation Zrotation
								End Site
								{
									OFFSET 0.00000 0.00000 3.93700
								}
							}
							JOINT R_Wrist_End
							{
								OFFSET -5.39369 -0.00002 0.00000
								CHANNELS 3 Xrotation Yrotation Zrotation
							}
						}
					}
				}
			}
		}
	}
}
MOTION
Frames: 9
Frame Time: 0.033332
 -19.7006 32.7644 0.2842 4.8807 -11.9597 -0.3527 0.0679 37.1409 6.0532 4.5539 0.0000 0.0000 -9.4125 -3.5015 -2.1605 -6.6394 0.0000 -0.0000 -5.1036 9.1529 -8.3373 1.9412 -0.0000 0.0000 -4.8728 12.0015 9.8110 -10.5359 0.0000 0.0000 -4.9864 -1.7413 -9.6662 3.0441 -1.5420 11.1076 2.1468 -37.9564 4.7724 -7.3295 50.3804 7.2658 -2.7410 29.5950 17.7709 -25.1474 -3.3205 -25.4879 -0.0001 -21.2275 -0.0000 -7.7556 4.0256 -0.1609 -0.0000 0.0000 -0.0000 -0.0000 0.0000 -0.0000 0.9725 -10.4385 -19.8375 -51.1271 -6.0045 34.5160 -0.0001 21.9969 0.0000 8.1692 0.0038 -14.3274 -0.0000 0.0000 -0.0000 -0.0000 0.0000 -0.0000
 -19.6857 32.7624 0.2850 4.8785 -11.9612 -0.3625 0.0764 37.0838 6.0324 4.5729 0.0000 -0.0000 -9.4589 -3.4502 -2.2349 -6.6026 0.0000 0.0000 -5.0979 9.2139 -8.3573 1.9472 0.0000 0.0000 -4.8591 11.9288 9.9111 -10.6019 0.0000 -0.0000 -4.9839 -1.7595 -9.7033 3.0209 -1.5614 11.0953 2.1847 -37.9393 4.7670 -7.2621 50.4582 7.2592 -2.7164 29.6150 17.7796 -25.2069 -3.3249 -25.4282 -0.0001 -21.1799 -0.0000 -7.8051 4.0104 -0.2130 -0.0000 0.0000 -0.0000 -0.0000 0.0000 -0.0000 1.0520 -10.4456 -19.8475 -51.2686 -6.1108 34.5211 -0.0001 22.0464 0.0000 8.1203 0.0622 -14.3205 -0.0000 -0.0000 0.0000 -0.0000 -0.0000 0.0000
 -19.6611 32.7613 0.2866 4.8560 -11.9314 -0.3705 0.0658 37.0543 6.0093 4.6649 0.0000 0.0000 -9.5330 -3.4419 -2.2019 -6.5432 0.0000 0.0000 -5.1134 9.2727 -8.3942 2.0567 -0.0000 0.0000 -4.8982 11.8507 9.8996 -10.5773 0.0000 -0.0000 -4.9693 -1.7673 -9.7343 3.0085 -1.5684 11.0879 2.2302 -37.9246 4.7425 -7.2392 50.5650 7.2781 -2.7110 29.6271 17.7722 -25.3371 -3.3363 -25.4429 -0.0001 -21.2142 -0.0000 -7.8484 4.0006 -0.1021 -0.0000 0.0000 -0.0000 -0.0000 0.0000 -0.0000 1.0525 -10.4221 -19.8531 -51.2498 -6.1738 34.5061 -0.0001 22.1874 0.0000 8.3057 -0.0177 -14.3160 -0.0000 0.0000 -0.0000 -0.0000 0.0000 -0.0000
 -19.6312 32.7616 0.2846 4.8359 -11.9191 -0.3812 0.0575 37.0243 5.9806 4.7569 -0.0000 0.0000 -9.6209 -3.4271 -2.1899 -6.6152 0.0000 -0.0000 -5.1026 9.2434 -8.4363 2.0620 -0.0000 0.0000 -4.8614 11.8508 9.8649 -10.5604 0.0000 -0.0000 -4.9713 -1.7682 -9.7536 3.0020 -1.5712 11.0841 2.2940 -37.9100 4.7320 -7.1834 50.6534 7.2116 -2.6864 29.6246 17.7669 -25.1935 -3.4397 -25.4248 -0.0001 -21.2833 -0.0000 -7.6355 4.0269 -0.1441 -0.0000 0.0000 -0.0000 -0.0000 0.0000 -0.0000 1.0818 -10.4020 -19.8595 -51.1720 -6.1533 34.5459 -0.0001 22.3590 0.0000 8.1883 0.0439 -14.3119 -0.0000 0.0000 -0.0000 -0.0000 0.0000 -0.0000
 -19.5937 32.7578 0.2865 4.8136 -11.8818 -0.3808 0.0999 36.9824 5.9033 4.7966 -0.0000 0.0000 -9.6942 -3.4292 -2.2321 -6.5675 0.0000 0.0000 -5.0981 9.1980 -8.5069 2.1090 0.0000 0.0000 -4.8854 11.8443 9.8517 -10.6060 0.0000 -0.0000 -4.9848 -1.7639 -9.7657 3.0098 -1.5720 11.0765 2.3357 -37.9560 4.7025 -7.1031 50.7550 7.1321 -2.6488 29.6411 17.7233 -25.2709 -3.5011 -25.4597 -0.0001 -21.3006 -0.0000 -7.7728 4.0032 -0.1543 -0.0000 0.0000 -0.0000 -0.0000 0.0000 -0.0000 1.1087 -10.3921 -19.8756 -51.1073 -6.1205 34.5997 -0.0001 22.5501 0.0000 8.3060 -0.0135 -14.2456 -0.0000 -0.0000 0.0000 -0.0000 -0.0000 0.0000
 -19.5458 32.7550 0.2905 4.7753 -11.8187 -0.3444 0.2311 36.8634 5.7276 4.7899 -0.0000 0.0000 -9.7715 -3.3642 -2.2328 -6.5114 0.0000 0.0000 -5.0868 9.1809 -8.6379 2.2045 -0.0000 -0.0000 -4.9398 11.8152 9.9128 -10.5414 0.0000 0.0000 -4.9880 -1.7544 -9.7900 3.0440 -1.5678 11.0568 2.3560 -38.1012 4.6821 -7.0419 50.9562 7.0433 -2.6193 29.6754 17.6582 -25.4086 -3.5741 -25.5135 -0.0001 -21.3019 -0.0000 -7.7053 3.9557 -0.1742 -0.0000 0.0000 -0.0000 -0.0000 0.0000 -0.0000 1.1360 -10.3832 -19.8908 -50.9690 -6.0297 34.6302 -0.0001 22.7362 0.0000 8.1724 0.0697 -14.2920 -0.0000 0.0000 -0.0000 -0.0000 0.0000 -0.0000
 -19.4892 32.7530 0.2969 4.7286 -11.7502 -0.2404 0.4487 36.6953 5.4375 4.7722 0.0000 0.0000 -9.7870 -3.2673 -2.0465 -6.5581 0.0000 0.0000 -5.0232 9.1207 -8.8616 2.2370 -0.0000 0.0000 -4.9675 11.8130 10.0049 -10.5504 0.0000 0.0000 -4.9962 -1.7489 -9.8417 3.0689 -1.5740 11.0055 2.3841 -38.4049 4.6732 -6.9585 51.3008 6.9400 -2.5586 29.7176 17.5472 -25.5176 -3.6473 -25.5189 -0.0001 -21.3166 -0.0000 -7.7009 3.9786 -0.1790 -0.0000 0.0000 -0.0000 -0.0000 0.0000 -0.0000 1.0936 -10.3901 -19.9062 -50.9215 -5.9329 34.7299 -0.0001 22.8970 0.0000 8.3488 0.0207 -14.2916 -0.0000 0.0000 -0.0000 -0.0000 0.0000 -0.0000
 -19.4419 32.7516 0.2969 4.7108 -11.7151 -0.2584 0.4956 36.7442 5.3634 4.7641 0.0000 0.0000 -9.8528 -3.3772 -2.1762 -6.5794 0.0000 -0.0000 -5.0309 9.1895 -8.9193 2.3271 -0.0000 0.0000 -4.9731 11.6782 9.8836 -10.5636 0.0000 -0.0000 -4.9977 -1.7286 -9.8458 3.0793 -1.5555 11.0048 2.3866 -38.4419 4.6912 -6.8622 51.4085 6.8199 -2.6262 29.7134 17.5659 -25.4894 -3.6574 -25.5589 -0.0001 -21.3245 -0.0000 -7.8105 3.9750 -0.1870 -0.0000 0.0000 -0.0000 -0.0000 0.0000 -0.0000 1.1387 -10.3638 -19.8795 -50.9486 -5.9286 34.7543 -0.0001 23.1025 0.0000 8.3944 -0.0190 -14.2536 -0.0000 0.0000 -0.0000 -0.0000 0.0000 -0.0000
 -19.3878 32.7479 0.3045 4.6918 -11.6178 -0.2366 0.6257 36.6693 5.1889 4.7040 0.0000 0.0000 -9.9090 -3.4040 -2.1831 -6.5442 0.0000 0.0000 -5.0274 9.1662 -9.0440 2.4244 -0.0000 -0.0000 -5.0253 11.6093 9.8993 -10.5340 0.0000 0.0000 -5.0118 -1.7107 -9.8593 3.0894 -1.5451 10.9804 2.4124 -38.5632 4.7662 -6.6336 51.6288 6.5041 -2.6146 29.7027 17.5441 -25.5859 -3.6705 -25.6048 -0.0001 -21.2885 -0.0000 -7.8136 3.9631 -0.1959 -0.0000 0.0000 -0.0000 -0.0000 0.0000 -0.0000 1.1304 -10.3351 -19.8767 -50.8951 -5.8796 34.7524 -0.0001 23.1395 0.0000 8.4502 -0.0394 -14.2489 -0.0000 -0.0000 0.0000 -0.0000 -0.0000 0.0000
